G04 Layer_Color=32896*
%FSLAX25Y25*%
%MOIN*%
G70*
G01*
G75*
%ADD16C,0.01000*%
%ADD17C,0.00787*%
D16*
X44368Y334707D02*
X45368Y333708D01*
Y331708D01*
X44368Y330709D01*
X40370D01*
X39370Y331708D01*
Y333708D01*
X40370Y334707D01*
X39370Y337706D02*
Y339706D01*
X40370Y340705D01*
X42369D01*
X43369Y339706D01*
Y337706D01*
X42369Y336707D01*
X40370D01*
X39370Y337706D01*
Y342705D02*
X43369D01*
Y345704D01*
X42369Y346704D01*
X39370D01*
X44368Y349703D02*
X43369D01*
Y348703D01*
Y350702D01*
Y349703D01*
X40370D01*
X39370Y350702D01*
X43369Y353701D02*
X39370D01*
X41369D01*
X42369Y354701D01*
X43369Y355701D01*
Y356700D01*
X39370Y360699D02*
Y362698D01*
X40370Y363698D01*
X42369D01*
X43369Y362698D01*
Y360699D01*
X42369Y359699D01*
X40370D01*
X39370Y360699D01*
Y365697D02*
Y367697D01*
Y366697D01*
X45368D01*
Y365697D01*
Y376694D02*
X39370D01*
Y379693D01*
X40370Y380693D01*
X41369D01*
X42369Y379693D01*
Y376694D01*
Y379693D01*
X43369Y380693D01*
X44368D01*
X45368Y379693D01*
Y376694D01*
X39370Y383692D02*
Y385691D01*
X40370Y386690D01*
X42369D01*
X43369Y385691D01*
Y383692D01*
X42369Y382692D01*
X40370D01*
X39370Y383692D01*
X43369Y389690D02*
Y391689D01*
X42369Y392689D01*
X39370D01*
Y389690D01*
X40370Y388690D01*
X41369Y389690D01*
Y392689D01*
X43369Y394688D02*
X39370D01*
X41369D01*
X42369Y395688D01*
X43369Y396687D01*
Y397687D01*
X45368Y404685D02*
X39370D01*
Y401686D01*
X40370Y400686D01*
X42369D01*
X43369Y401686D01*
Y404685D01*
X72835Y330709D02*
X78833D01*
X76833Y332708D01*
X78833Y334707D01*
X72835D01*
X76833Y336707D02*
X73834D01*
X72835Y337706D01*
Y340705D01*
X76833D01*
X72835Y342705D02*
Y344704D01*
Y343705D01*
X78833D01*
Y342705D01*
X77833Y348703D02*
X76833D01*
Y347703D01*
Y349703D01*
Y348703D01*
X73834D01*
X72835Y349703D01*
Y352701D02*
Y354701D01*
Y353701D01*
X76833D01*
Y352701D01*
X70835Y357700D02*
X76833D01*
Y360699D01*
X75834Y361699D01*
X73834D01*
X72835Y360699D01*
Y357700D01*
Y363698D02*
Y365697D01*
Y364698D01*
X78833D01*
Y363698D01*
X72835Y371695D02*
Y369696D01*
X73834Y368696D01*
X75834D01*
X76833Y369696D01*
Y371695D01*
X75834Y372695D01*
X74834D01*
Y368696D01*
X72835Y384691D02*
X73834Y383692D01*
X72835Y382692D01*
Y381692D01*
X73834Y380693D01*
X74834D01*
X75834Y381692D01*
X76833Y380693D01*
X77833D01*
X78833Y381692D01*
Y382692D01*
X77833Y383692D01*
X76833D01*
X75834Y382692D01*
X74834Y383692D01*
X73834D01*
X75834Y384691D02*
X74834Y383692D01*
X75834Y381692D02*
Y382692D01*
X72835Y392689D02*
X78833D01*
X76833Y394688D01*
X78833Y396687D01*
X72835D01*
Y398687D02*
Y400686D01*
Y399686D01*
X76833D01*
Y398687D01*
Y403685D02*
X72835Y407684D01*
X74834Y405684D01*
X76833Y407684D01*
X72835Y403685D01*
Y412682D02*
Y410683D01*
X73834Y409683D01*
X75834D01*
X76833Y410683D01*
Y412682D01*
X75834Y413682D01*
X74834D01*
Y409683D01*
D17*
X31496Y161417D02*
X90551D01*
X31496Y133858D02*
Y161417D01*
Y133858D02*
X90551D01*
Y161417D01*
X31496Y318898D02*
X90551D01*
X31496Y295276D02*
Y318898D01*
Y295276D02*
X90551D01*
Y318898D01*
M02*
