G04 Layer_Physical_Order=1*
G04 Layer_Color=255*
%FSLAX25Y25*%
%MOIN*%
G70*
G01*
G75*
%ADD10C,0.02362*%
%ADD11C,0.07087*%
%ADD12C,0.07874*%
%ADD13C,0.11811*%
%ADD14C,0.07087*%
%ADD15C,0.05512*%
D10*
X53976Y57913D02*
Y70866D01*
X41339Y45276D02*
X53976Y57913D01*
X17717Y45276D02*
X41339D01*
X11811Y51181D02*
X17717Y45276D01*
X40945Y133858D02*
X50630Y143543D01*
X29528Y133858D02*
X40945D01*
X19685Y124016D02*
X29528Y133858D01*
X19685Y61024D02*
Y124016D01*
Y61024D02*
X27087Y53622D01*
X29528D01*
X63976Y70866D02*
X67913Y66929D01*
X94488D01*
X104331Y76772D01*
Y147638D01*
X88583Y163386D02*
X104331Y147638D01*
X64961Y163386D02*
X88583D01*
X60630Y159055D02*
X64961Y163386D01*
X60630Y153543D02*
Y159055D01*
X11811Y51181D02*
Y139764D01*
X35433Y163386D01*
X45276D01*
X50630Y158031D01*
Y153543D02*
Y158031D01*
X37638Y120551D02*
X60630Y143543D01*
X29528Y120551D02*
X37638D01*
X88583Y455590D02*
X102362Y441811D01*
Y414173D02*
Y441811D01*
X62992Y374803D02*
X102362Y414173D01*
X62992Y324567D02*
Y374803D01*
X50630Y312205D02*
X62992Y324567D01*
X57087Y398563D02*
X64035Y405512D01*
X57087Y328661D02*
Y398563D01*
X40630Y312205D02*
X57087Y328661D01*
X35433Y405512D02*
X54035D01*
X17717Y387795D02*
X35433Y405512D01*
X17717Y325118D02*
Y387795D01*
Y325118D02*
X40630Y302205D01*
D11*
X29528Y8740D02*
D03*
Y75669D02*
D03*
X88583D02*
D03*
X29528Y343779D02*
D03*
X88583D02*
D03*
X29528Y176390D02*
D03*
X88583D02*
D03*
X29528Y243386D02*
D03*
Y410709D02*
D03*
X88583D02*
D03*
Y243386D02*
D03*
Y8740D02*
D03*
D12*
X29528Y20945D02*
D03*
Y53622D02*
D03*
Y87874D02*
D03*
Y120551D02*
D03*
X88583Y87874D02*
D03*
Y120551D02*
D03*
X29528Y355984D02*
D03*
Y388661D02*
D03*
X88583Y355984D02*
D03*
Y388661D02*
D03*
X29528Y188594D02*
D03*
Y221272D02*
D03*
X88583Y188594D02*
D03*
Y221272D02*
D03*
X29528Y255591D02*
D03*
Y288268D02*
D03*
Y422913D02*
D03*
Y455590D02*
D03*
X88583Y422913D02*
D03*
Y455590D02*
D03*
Y255591D02*
D03*
Y288268D02*
D03*
Y20945D02*
D03*
Y53622D02*
D03*
D13*
X29528Y34252D02*
D03*
Y101181D02*
D03*
X88583D02*
D03*
X29528Y369291D02*
D03*
X88583D02*
D03*
X29528Y201902D02*
D03*
X88583D02*
D03*
X29528Y268898D02*
D03*
Y436220D02*
D03*
X88583D02*
D03*
Y268898D02*
D03*
Y34252D02*
D03*
D14*
X80630Y302205D02*
D03*
X70630D02*
D03*
X60630D02*
D03*
X50630D02*
D03*
X40630D02*
D03*
Y312205D02*
D03*
X50630D02*
D03*
X60630D02*
D03*
X70630D02*
D03*
X80630D02*
D03*
X40630Y153543D02*
D03*
Y143543D02*
D03*
X50630D02*
D03*
Y153543D02*
D03*
X60630Y143543D02*
D03*
Y153543D02*
D03*
X70630Y143543D02*
D03*
Y153543D02*
D03*
X80630Y143543D02*
D03*
Y153543D02*
D03*
D15*
X54035Y405512D02*
D03*
X64035D02*
D03*
X53976Y70866D02*
D03*
X63976D02*
D03*
X64139Y238090D02*
D03*
X54139D02*
D03*
M02*
