M48
;Layer_Color=9474304
;FILE_FORMAT=2:5
INCH,TZ
;TYPE=PLATED
T1F00S00C0.03543
T2F00S00C0.04331
T3F00S00C0.05118
T4F00S00C0.05906
;TYPE=NON_PLATED
T5F00S00C0.11811
%
T01
X53976Y70866
X63976
X64139Y238090
X54139
X54035Y405512
X64035
T02
X40630Y143543
Y153543
X50630
Y143543
X60630
Y153543
X70630
Y143543
X80630
Y153543
Y302205
X70630
X60630
X50630
X40630
Y312205
X50630
X60630
X70630
X80630
T03
X29528Y8740
X88583
Y75669
X29528
Y176390
X88583
Y243386
X29528
Y343779
X88583
Y410709
X29528
T04
X29528Y20945
Y53622
Y87874
Y120551
X88583
Y87874
Y53622
Y20945
Y188594
Y221272
Y255591
Y288268
X29528
Y255591
Y221272
Y188594
Y355984
Y388661
Y422913
Y455590
X88583
Y422913
Y388661
Y355984
T05
X29528Y34252
X88583
Y101181
X29528
Y201902
X88583
Y268898
X29528
Y369291
X88583
Y436220
X29528
M30
