G04 Layer_Color=65535*
%FSLAX25Y25*%
%MOIN*%
G70*
G01*
G75*
%ADD16C,0.01000*%
%ADD17C,0.00787*%
D16*
X54073Y399463D02*
X54856Y398889D01*
X55703Y398415D01*
X56602Y398049D01*
X57539Y397797D01*
X58500Y397662D01*
X59471Y397646D01*
X60436Y397749D01*
X61381Y397971D01*
X62292Y398307D01*
X63154Y398753D01*
X63955Y399301D01*
X64682Y399944D01*
Y411080D02*
X63908Y411759D01*
X63051Y412331D01*
X62127Y412786D01*
X61152Y413118D01*
X60142Y413318D01*
X59114Y413386D01*
X58086Y413318D01*
X57076Y413118D01*
X56101Y412786D01*
X55177Y412331D01*
X54321Y411759D01*
X53546Y411080D01*
X54014Y64817D02*
X54797Y64243D01*
X55644Y63769D01*
X56543Y63404D01*
X57480Y63151D01*
X58442Y63016D01*
X59412Y63000D01*
X60377Y63104D01*
X61322Y63326D01*
X62233Y63662D01*
X63095Y64107D01*
X63896Y64656D01*
X64623Y65298D01*
Y76434D02*
X63849Y77113D01*
X62992Y77685D01*
X62068Y78141D01*
X61093Y78472D01*
X60083Y78673D01*
X59055Y78740D01*
X58027Y78673D01*
X57017Y78472D01*
X56042Y78141D01*
X55118Y77685D01*
X54262Y77113D01*
X53487Y76434D01*
X64101Y244140D02*
X63318Y244714D01*
X62471Y245187D01*
X61572Y245553D01*
X60635Y245806D01*
X59674Y245941D01*
X58703Y245956D01*
X57738Y245853D01*
X56793Y245631D01*
X55883Y245295D01*
X55020Y244849D01*
X54220Y244301D01*
X53492Y243658D01*
Y232523D02*
X54267Y231844D01*
X55123Y231271D01*
X56047Y230816D01*
X57022Y230485D01*
X58032Y230284D01*
X59060Y230217D01*
X60088Y230284D01*
X61098Y230485D01*
X62073Y230816D01*
X62997Y231271D01*
X63853Y231844D01*
X64628Y232523D01*
X12405Y471234D02*
X14405D01*
X13405D01*
Y465236D01*
X12405D01*
X14405D01*
X17404D02*
Y471234D01*
X21403Y465236D01*
Y471234D01*
X74479Y471222D02*
X72479D01*
X71479Y470222D01*
Y466223D01*
X72479Y465224D01*
X74479D01*
X75478Y466223D01*
Y470222D01*
X74479Y471222D01*
X77478D02*
Y466223D01*
X78477Y465224D01*
X80477D01*
X81476Y466223D01*
Y471222D01*
X83476D02*
X87474D01*
X85475D01*
Y465224D01*
X74423Y404322D02*
X72423D01*
X71424Y403322D01*
Y399323D01*
X72423Y398324D01*
X74423D01*
X75422Y399323D01*
Y403322D01*
X74423Y404322D01*
X77422D02*
Y399323D01*
X78421Y398324D01*
X80421D01*
X81420Y399323D01*
Y404322D01*
X83420D02*
X87418D01*
X85419D01*
Y398324D01*
X15430Y404322D02*
X13430D01*
X12431Y403322D01*
Y399323D01*
X13430Y398324D01*
X15430D01*
X16429Y399323D01*
Y403322D01*
X15430Y404322D01*
X18429D02*
Y399323D01*
X19429Y398324D01*
X21428D01*
X22427Y399323D01*
Y404322D01*
X24427D02*
X28425D01*
X26426D01*
Y398324D01*
X12464Y303872D02*
X14463D01*
X13464D01*
Y297874D01*
X12464D01*
X14463D01*
X17462D02*
Y303872D01*
X21461Y297874D01*
Y303872D01*
X95276Y304423D02*
X97275D01*
X96275D01*
Y298425D01*
X95276D01*
X97275D01*
X100274D02*
Y304423D01*
X104273Y298425D01*
Y304423D01*
X74499Y236872D02*
X72500D01*
X71500Y235872D01*
Y231874D01*
X72500Y230874D01*
X74499D01*
X75499Y231874D01*
Y235872D01*
X74499Y236872D01*
X77498D02*
Y231874D01*
X78498Y230874D01*
X80497D01*
X81497Y231874D01*
Y236872D01*
X83496D02*
X87495D01*
X85496D01*
Y230874D01*
X15399Y236872D02*
X13400D01*
X12400Y235872D01*
Y231874D01*
X13400Y230874D01*
X15399D01*
X16399Y231874D01*
Y235872D01*
X15399Y236872D01*
X18398D02*
Y231874D01*
X19398Y230874D01*
X21397D01*
X22397Y231874D01*
Y236872D01*
X24396D02*
X28395D01*
X26395D01*
Y230874D01*
X71455Y136198D02*
X73454D01*
X72455D01*
Y130200D01*
X71455D01*
X73454D01*
X76454D02*
Y136198D01*
X80452Y130200D01*
Y136198D01*
X12445D02*
X14444D01*
X13445D01*
Y130200D01*
X12445D01*
X14444D01*
X17443D02*
Y136198D01*
X21442Y130200D01*
Y136198D01*
X12400Y69198D02*
X14399D01*
X13400D01*
Y63200D01*
X12400D01*
X14399D01*
X17398D02*
Y69198D01*
X21397Y63200D01*
Y69198D01*
X92369Y68597D02*
X90370D01*
X89370Y67597D01*
Y63598D01*
X90370Y62598D01*
X92369D01*
X93369Y63598D01*
Y67597D01*
X92369Y68597D01*
X95368D02*
Y63598D01*
X96368Y62598D01*
X98367D01*
X99367Y63598D01*
Y68597D01*
X101366D02*
X105365D01*
X103366D01*
Y62598D01*
X62652Y439370D02*
X56653D01*
Y435371D01*
X62652Y429373D02*
Y433372D01*
X56653D01*
Y429373D01*
X59653Y433372D02*
Y431373D01*
X62652Y427374D02*
X56653D01*
Y424375D01*
X57653Y423375D01*
X61652D01*
X62652Y424375D01*
Y427374D01*
X56653Y421376D02*
Y419377D01*
Y420376D01*
X62652D01*
X61652Y421376D01*
X55026Y196457D02*
X61024D01*
Y200455D01*
X55026Y206453D02*
Y202455D01*
X61024D01*
Y206453D01*
X58025Y202455D02*
Y204454D01*
X55026Y208453D02*
X61024D01*
Y211452D01*
X60024Y212452D01*
X56025D01*
X55026Y211452D01*
Y208453D01*
X61024Y218450D02*
Y214451D01*
X57025Y218450D01*
X56025D01*
X55026Y217450D01*
Y215451D01*
X56025Y214451D01*
X56994Y32283D02*
X62992D01*
Y36282D01*
X56994Y42280D02*
Y38282D01*
X62992D01*
Y42280D01*
X59993Y38282D02*
Y40281D01*
X56994Y44280D02*
X62992D01*
Y47279D01*
X61992Y48278D01*
X57994D01*
X56994Y47279D01*
Y44280D01*
X57994Y50278D02*
X56994Y51277D01*
Y53277D01*
X57994Y54276D01*
X58993D01*
X59993Y53277D01*
Y52277D01*
Y53277D01*
X60993Y54276D01*
X61992D01*
X62992Y53277D01*
Y51277D01*
X61992Y50278D01*
X72835Y410387D02*
X68836D01*
X70835Y408387D02*
Y412386D01*
X72835Y75347D02*
X68836D01*
X70835Y73348D02*
Y77347D01*
X45280Y238137D02*
X49279D01*
X47280Y240136D02*
Y236137D01*
D17*
X47244Y14567D02*
Y59842D01*
X11811Y14567D02*
X47244D01*
X11811D02*
Y59842D01*
X47244D01*
Y81496D02*
Y126772D01*
X11811Y81496D02*
X47244D01*
X11811D02*
Y126772D01*
X47244D01*
X106299Y81496D02*
Y126772D01*
X70866Y81496D02*
X106299D01*
X70866D02*
Y126772D01*
X106299D01*
X47244Y349606D02*
Y394882D01*
X11811Y349606D02*
X47244D01*
X11811D02*
Y394882D01*
X47244D01*
X106299Y349606D02*
Y394882D01*
X70866Y349606D02*
X106299D01*
X70866D02*
Y394882D01*
X106299D01*
X47244Y182217D02*
Y227492D01*
X11811Y182217D02*
X47244D01*
X11811D02*
Y227492D01*
X47244D01*
X106299Y182217D02*
Y227492D01*
X70866Y182217D02*
X106299D01*
X70866D02*
Y227492D01*
X106299D01*
X47244Y249213D02*
Y294488D01*
X11811Y249213D02*
X47244D01*
X11811D02*
Y294488D01*
X47244D01*
Y416535D02*
Y461811D01*
X11811Y416535D02*
X47244D01*
X11811D02*
Y461811D01*
X47244D01*
X106299Y416535D02*
Y461811D01*
X70866Y416535D02*
X106299D01*
X70866D02*
Y461811D01*
X106299D01*
Y249213D02*
Y294488D01*
X70866Y249213D02*
X106299D01*
X70866D02*
Y294488D01*
X106299D01*
Y14567D02*
Y59842D01*
X70866Y14567D02*
X106299D01*
X70866D02*
Y59842D01*
X106299D01*
M02*
