G04 Layer_Color=16711935*
%FSLAX25Y25*%
%MOIN*%
G70*
G01*
G75*
%ADD18C,0.07887*%
%ADD19C,0.08674*%
%ADD20C,0.12611*%
%ADD21C,0.07887*%
%ADD22C,0.06312*%
D18*
X29528Y8740D02*
D03*
Y75669D02*
D03*
X88583D02*
D03*
X29528Y343779D02*
D03*
X88583D02*
D03*
X29528Y176390D02*
D03*
X88583D02*
D03*
X29528Y243386D02*
D03*
Y410709D02*
D03*
X88583D02*
D03*
Y243386D02*
D03*
Y8740D02*
D03*
D19*
X29528Y20945D02*
D03*
Y53622D02*
D03*
Y87874D02*
D03*
Y120551D02*
D03*
X88583Y87874D02*
D03*
Y120551D02*
D03*
X29528Y355984D02*
D03*
Y388661D02*
D03*
X88583Y355984D02*
D03*
Y388661D02*
D03*
X29528Y188594D02*
D03*
Y221272D02*
D03*
X88583Y188594D02*
D03*
Y221272D02*
D03*
X29528Y255591D02*
D03*
Y288268D02*
D03*
Y422913D02*
D03*
Y455590D02*
D03*
X88583Y422913D02*
D03*
Y455590D02*
D03*
Y255591D02*
D03*
Y288268D02*
D03*
Y20945D02*
D03*
Y53622D02*
D03*
D20*
X29528Y34252D02*
D03*
Y101181D02*
D03*
X88583D02*
D03*
X29528Y369291D02*
D03*
X88583D02*
D03*
X29528Y201902D02*
D03*
X88583D02*
D03*
X29528Y268898D02*
D03*
Y436220D02*
D03*
X88583D02*
D03*
Y268898D02*
D03*
Y34252D02*
D03*
D21*
X80630Y302205D02*
D03*
X70630D02*
D03*
X60630D02*
D03*
X50630D02*
D03*
X40630D02*
D03*
Y312205D02*
D03*
X50630D02*
D03*
X60630D02*
D03*
X70630D02*
D03*
X80630D02*
D03*
X40630Y153543D02*
D03*
Y143543D02*
D03*
X50630D02*
D03*
Y153543D02*
D03*
X60630Y143543D02*
D03*
Y153543D02*
D03*
X70630Y143543D02*
D03*
Y153543D02*
D03*
X80630Y143543D02*
D03*
Y153543D02*
D03*
D22*
X54035Y405512D02*
D03*
X64035D02*
D03*
X53976Y70866D02*
D03*
X63976D02*
D03*
X64139Y238090D02*
D03*
X54139D02*
D03*
M02*
