G04 Layer_Color=16711935*
%FSLAX25Y25*%
%MOIN*%
G70*
G01*
G75*
%ADD25C,0.07887*%
%ADD26C,0.05524*%
%ADD27C,0.07887*%
%ADD28R,0.06706X0.06706*%
%ADD29C,0.06706*%
%ADD30C,0.07099*%
%ADD31C,0.06706*%
%ADD32R,0.08674X0.08674*%
%ADD33C,0.08674*%
D25*
X40630Y143543D02*
D03*
X50630D02*
D03*
X60630D02*
D03*
X70630D02*
D03*
X80630D02*
D03*
X40630Y312205D02*
D03*
X50630D02*
D03*
X60630D02*
D03*
X70630D02*
D03*
X80630D02*
D03*
Y153543D02*
D03*
X70630D02*
D03*
X60630D02*
D03*
X50630D02*
D03*
X40630D02*
D03*
Y302205D02*
D03*
X50630D02*
D03*
X60630D02*
D03*
X70630D02*
D03*
X80630D02*
D03*
D26*
X59842Y194095D02*
D03*
X69685D02*
D03*
X39370Y418504D02*
D03*
X31496D02*
D03*
X87795D02*
D03*
X79921D02*
D03*
X59842Y421457D02*
D03*
Y411614D02*
D03*
Y358661D02*
D03*
X69685D02*
D03*
Y256299D02*
D03*
X59842D02*
D03*
X84646Y25197D02*
D03*
X74803D02*
D03*
X44882Y81890D02*
D03*
X54724D02*
D03*
D27*
X39055Y445905D02*
D03*
Y455905D02*
D03*
X49055Y445905D02*
D03*
Y455905D02*
D03*
X59055Y445905D02*
D03*
Y455905D02*
D03*
X69055Y445905D02*
D03*
Y455905D02*
D03*
X79055Y445905D02*
D03*
Y455905D02*
D03*
D28*
X89842Y400039D02*
D03*
Y236654D02*
D03*
X74843Y68543D02*
D03*
D29*
X79843Y400039D02*
D03*
X69842D02*
D03*
X59842D02*
D03*
X49843D02*
D03*
X39843D02*
D03*
X29842D02*
D03*
X89842Y370039D02*
D03*
X79843D02*
D03*
X69842D02*
D03*
X59842D02*
D03*
X49843D02*
D03*
X39843D02*
D03*
X29842D02*
D03*
X79843Y236654D02*
D03*
X69842D02*
D03*
X59842D02*
D03*
X49843D02*
D03*
X39843D02*
D03*
X29842D02*
D03*
X89842Y206654D02*
D03*
X79843D02*
D03*
X69842D02*
D03*
X59842D02*
D03*
X49843D02*
D03*
X39843D02*
D03*
X29842D02*
D03*
X64842Y68543D02*
D03*
X54843D02*
D03*
X44842D02*
D03*
X74843Y38543D02*
D03*
X64842D02*
D03*
X54843D02*
D03*
X44842D02*
D03*
D30*
X52362Y338976D02*
D03*
X9055D02*
D03*
Y348819D02*
D03*
X52362D02*
D03*
X65748Y343701D02*
D03*
X109055D02*
D03*
X52362Y329134D02*
D03*
X9055D02*
D03*
X65748Y333858D02*
D03*
X109055D02*
D03*
X52362Y277559D02*
D03*
X9055D02*
D03*
X52362Y287402D02*
D03*
X9055D02*
D03*
X109055Y282480D02*
D03*
X65748D02*
D03*
Y272638D02*
D03*
X109055D02*
D03*
X9055Y267717D02*
D03*
X52362D02*
D03*
X52362Y174409D02*
D03*
X9055D02*
D03*
X109055Y179134D02*
D03*
X65748D02*
D03*
X9055Y184252D02*
D03*
X52362D02*
D03*
X65748Y169291D02*
D03*
X109055D02*
D03*
X52362Y126772D02*
D03*
X9055D02*
D03*
X52362Y116929D02*
D03*
X9055D02*
D03*
X52362Y107087D02*
D03*
X9055D02*
D03*
X109055Y112992D02*
D03*
X65748D02*
D03*
Y122835D02*
D03*
X109055D02*
D03*
X9055Y23228D02*
D03*
X52362D02*
D03*
Y97244D02*
D03*
X9055D02*
D03*
D31*
X38976Y253150D02*
D03*
X19291D02*
D03*
X77559Y98032D02*
D03*
X97244D02*
D03*
D32*
X9252Y459567D02*
D03*
X108661Y418386D02*
D03*
D33*
X9252D02*
D03*
X108661Y459567D02*
D03*
M02*
