M48
;Layer_Color=9474304
;FILE_FORMAT=2:5
INCH,LZ
;TYPE=PLATED
T1F00S00C0.02756
T2F00S00C0.03150
T3F00S00C0.03543
T4F00S00C0.04331
T5F00S00C0.04724
%
T01
X0074803Y0025197
X0084646
X0054724Y008189
X0044882
X0059842Y0194095
X0069685
Y0256299
X0059842
Y0358661
X0069685
X0059842Y0411614
Y0421457
X0079921Y0418504
X0087795
X003937
X0031496
T02
X0009055Y0023228
X0052362
Y0097244
Y0107087
Y0116929
Y0126772
X0065748Y0122835
Y0112992
X0077559Y0098032
X0097244
X0109055Y0112992
Y0122835
X0009055Y0126772
Y0116929
Y0107087
Y0097244
Y0174409
Y0184252
X0052362
Y0174409
X0065748Y0179134
Y0169291
X0109055
Y0179134
Y0272638
Y028248
X0065748
Y0272638
X0052362Y0277559
Y0287402
Y0267717
X0038976Y025315
X0019291
X0009055Y0267717
Y0277559
Y0287402
X0009055Y0329134
Y0338976
Y0348819
X0052362
Y0338976
Y0329134
X0065748Y0333858
Y0343701
X0109055
Y0333858
T03
X0044842Y0038543
X0054843
X0064842
X0074843
Y0068543
X0064842
X0054843
X0044842
X0049843Y0206654
X0059842
X0069842
X0079843
X0089842
Y0236654
X0079843
X0069842
X0059842
X0049843
X0039843
X0029842
Y0206654
X0039843
Y0370039
X0049843
X0059842
X0069842
X0079843
X0089842
Y0400039
X0079843
X0069842
X0059842
X0049843
X0039843
X0029842
Y0370039
T04
X004063Y0143543
X005063
X006063
X007063
X008063
Y0153543
X007063
X006063
X005063
X004063
Y0302205
Y0312205
X005063
Y0302205
X006063
Y0312205
X007063
Y0302205
X008063
Y0312205
X0079055Y0445905
X0069055
X0059055
X0049055
X0039055
Y0455905
X0049055
X0059055
X0069055
X0079055
T05
X0009252Y0418386
Y0459567
X0108661
Y0418386
M30
