G04 Layer_Color=65535*
%FSLAX25Y25*%
%MOIN*%
G70*
G01*
G75*
%ADD22C,0.00787*%
%ADD23C,0.01000*%
%ADD24R,0.11024X0.03150*%
D22*
X45276Y418504D02*
X45225Y419500D01*
X45074Y420485D01*
X44824Y421450D01*
X44478Y422385D01*
X44039Y423280D01*
X43512Y424127D01*
X42901Y424915D01*
X42214Y425638D01*
X41458Y426287D01*
X40639Y426857D01*
X39768Y427341D01*
X38851Y427734D01*
X37900Y428032D01*
X36924Y428233D01*
X35932Y428334D01*
X34935D01*
X33943Y428233D01*
X32966Y428032D01*
X32015Y427734D01*
X31098Y427341D01*
X30227Y426857D01*
X29408Y426287D01*
X28652Y425638D01*
X27965Y424915D01*
X27355Y424127D01*
X26827Y423280D01*
X26388Y422385D01*
X26042Y421450D01*
X25792Y420485D01*
X25641Y419500D01*
X25591Y418504D01*
X25641Y417508D01*
X25792Y416523D01*
X26042Y415557D01*
X26388Y414622D01*
X26827Y413727D01*
X27355Y412881D01*
X27965Y412093D01*
X28652Y411370D01*
X29408Y410721D01*
X30227Y410151D01*
X31098Y409667D01*
X32015Y409274D01*
X32966Y408976D01*
X33943Y408775D01*
X34935Y408674D01*
X35932D01*
X36924Y408775D01*
X37900Y408976D01*
X38851Y409274D01*
X39768Y409667D01*
X40639Y410151D01*
X41458Y410721D01*
X42214Y411370D01*
X42901Y412093D01*
X43512Y412881D01*
X44039Y413727D01*
X44478Y414622D01*
X44824Y415557D01*
X45074Y416523D01*
X45225Y417508D01*
X45276Y418504D01*
X93701D02*
X93650Y419500D01*
X93499Y420485D01*
X93249Y421450D01*
X92903Y422385D01*
X92464Y423280D01*
X91937Y424127D01*
X91326Y424915D01*
X90639Y425638D01*
X89883Y426287D01*
X89065Y426857D01*
X88193Y427341D01*
X87277Y427734D01*
X86325Y428032D01*
X85349Y428233D01*
X84357Y428334D01*
X83360D01*
X82368Y428233D01*
X81391Y428032D01*
X80440Y427734D01*
X79524Y427341D01*
X78652Y426857D01*
X77834Y426287D01*
X77077Y425638D01*
X76390Y424915D01*
X75780Y424127D01*
X75252Y423280D01*
X74813Y422385D01*
X74467Y421450D01*
X74217Y420485D01*
X74066Y419500D01*
X74016Y418504D01*
X74066Y417508D01*
X74217Y416523D01*
X74467Y415557D01*
X74813Y414622D01*
X75252Y413727D01*
X75780Y412881D01*
X76390Y412093D01*
X77077Y411370D01*
X77834Y410721D01*
X78652Y410151D01*
X79524Y409667D01*
X80440Y409274D01*
X81391Y408976D01*
X82368Y408775D01*
X83360Y408674D01*
X84357D01*
X85349Y408775D01*
X86325Y408976D01*
X87277Y409274D01*
X88193Y409667D01*
X89065Y410151D01*
X89883Y410721D01*
X90640Y411370D01*
X91326Y412093D01*
X91937Y412881D01*
X92464Y413727D01*
X92903Y414622D01*
X93249Y415557D01*
X93499Y416523D01*
X93650Y417508D01*
X93701Y418504D01*
X98622Y387539D02*
X97665Y387349D01*
X96854Y386807D01*
X96312Y385996D01*
X96122Y385039D01*
X96312Y384083D01*
X96854Y383272D01*
X97665Y382730D01*
X98622Y382539D01*
Y224154D02*
X97665Y223963D01*
X96854Y223421D01*
X96312Y222610D01*
X96122Y221654D01*
X96312Y220697D01*
X96854Y219886D01*
X97665Y219344D01*
X98622Y219154D01*
X81496Y56043D02*
X80539Y55853D01*
X79728Y55311D01*
X79186Y54500D01*
X78996Y53543D01*
X79186Y52587D01*
X79728Y51775D01*
X80539Y51234D01*
X81496Y51043D01*
X63779Y189173D02*
Y199016D01*
X65748Y189173D02*
Y199016D01*
X49213Y416339D02*
Y420339D01*
X47213Y418339D02*
X51213D01*
X97638Y416339D02*
Y420339D01*
X95638Y418339D02*
X99638D01*
X54921Y417520D02*
X64764D01*
X54921Y415551D02*
X64764D01*
X63779Y353740D02*
Y363583D01*
X65748Y353740D02*
Y363583D01*
X98622Y387539D02*
Y395473D01*
Y374606D02*
Y382539D01*
X21063Y374606D02*
Y395473D01*
X98622D01*
X21063Y374606D02*
X98622D01*
X14961Y338976D02*
X15502D01*
X16978D02*
X18898D01*
X42126Y335039D02*
Y342913D01*
X19291D02*
X42126D01*
X19291Y335039D02*
Y342913D01*
Y335039D02*
X42126D01*
X42520Y338976D02*
X46457D01*
X15502D02*
X16978D01*
X45915Y348819D02*
X46457D01*
X42520D02*
X44439D01*
X19291Y344882D02*
Y352756D01*
Y344882D02*
X42126D01*
Y352756D01*
X19291D02*
X42126D01*
X14961Y348819D02*
X18898D01*
X44439D02*
X45915D01*
X102608Y343701D02*
X103150D01*
X99213D02*
X101132D01*
X75984Y339764D02*
Y347638D01*
Y339764D02*
X98819D01*
Y347638D01*
X75984D02*
X98819D01*
X71653Y343701D02*
X75590D01*
X101132D02*
X102608D01*
X14961Y329134D02*
X15502D01*
X16978D02*
X18898D01*
X42126Y325197D02*
Y333071D01*
X19291D02*
X42126D01*
X19291Y325197D02*
Y333071D01*
Y325197D02*
X42126D01*
X42520Y329134D02*
X46457D01*
X15502D02*
X16978D01*
X102608Y333858D02*
X103150D01*
X99213D02*
X101132D01*
X75984Y329921D02*
Y337795D01*
Y329921D02*
X98819D01*
Y337795D01*
X75984D02*
X98819D01*
X71653Y333858D02*
X75590D01*
X101132D02*
X102608D01*
X98622Y224154D02*
Y232087D01*
Y211221D02*
Y219154D01*
X21063Y211221D02*
Y232087D01*
X98622D01*
X21063Y211221D02*
X98622D01*
X14961Y277559D02*
X15502D01*
X16978D02*
X18898D01*
X42126Y273622D02*
Y281496D01*
X19291D02*
X42126D01*
X19291Y273622D02*
Y281496D01*
Y273622D02*
X42126D01*
X42520Y277559D02*
X46457D01*
X15502D02*
X16978D01*
X14961Y287402D02*
X15502D01*
X16978D02*
X18898D01*
X42126Y283465D02*
Y291339D01*
X19291D02*
X42126D01*
X19291Y283465D02*
Y291339D01*
Y283465D02*
X42126D01*
X42520Y287402D02*
X46457D01*
X15502D02*
X16978D01*
X71653Y282480D02*
X72195D01*
X73671D02*
X75590D01*
X98819Y278543D02*
Y286417D01*
X75984D02*
X98819D01*
X75984Y278543D02*
Y286417D01*
Y278543D02*
X98819D01*
X99213Y282480D02*
X103150D01*
X72195D02*
X73671D01*
X65748Y251378D02*
Y261221D01*
X63779Y251378D02*
Y261221D01*
X102608Y272638D02*
X103150D01*
X99213D02*
X101132D01*
X75984Y268701D02*
Y276575D01*
Y268701D02*
X98819D01*
Y276575D01*
X75984D02*
X98819D01*
X71653Y272638D02*
X75590D01*
X101132D02*
X102608D01*
X45915Y267717D02*
X46457D01*
X42520D02*
X44439D01*
X19291Y263779D02*
Y271654D01*
Y263779D02*
X42126D01*
Y271654D01*
X19291D02*
X42126D01*
X14961Y267717D02*
X18898D01*
X44439D02*
X45915D01*
X24213Y253150D02*
X28150D01*
X30118D02*
X34055D01*
X28150Y246260D02*
Y260039D01*
X30118Y246260D02*
Y260039D01*
X14961Y174409D02*
X15502D01*
X16978D02*
X18898D01*
X42126Y170473D02*
Y178347D01*
X19291D02*
X42126D01*
X19291Y170473D02*
Y178347D01*
Y170473D02*
X42126D01*
X42520Y174409D02*
X46457D01*
X15502D02*
X16978D01*
X71653Y179134D02*
X72195D01*
X73671D02*
X75590D01*
X98819Y175197D02*
Y183071D01*
X75984D02*
X98819D01*
X75984Y175197D02*
Y183071D01*
Y175197D02*
X98819D01*
X99213Y179134D02*
X103150D01*
X72195D02*
X73671D01*
X45915Y184252D02*
X46457D01*
X42520D02*
X44439D01*
X19291Y180315D02*
Y188189D01*
Y180315D02*
X42126D01*
Y188189D01*
X19291D02*
X42126D01*
X14961Y184252D02*
X18898D01*
X44439D02*
X45915D01*
X102608Y169291D02*
X103150D01*
X99213D02*
X101132D01*
X75984Y165354D02*
Y173228D01*
Y165354D02*
X98819D01*
Y173228D01*
X75984D02*
X98819D01*
X71653Y169291D02*
X75590D01*
X101132D02*
X102608D01*
X80709Y20276D02*
Y30118D01*
X78740Y20276D02*
Y30118D01*
X48819Y76968D02*
Y86811D01*
X50787Y76968D02*
Y86811D01*
X14961Y126772D02*
X15502D01*
X16978D02*
X18898D01*
X42126Y122835D02*
Y130709D01*
X19291D02*
X42126D01*
X19291Y122835D02*
Y130709D01*
Y122835D02*
X42126D01*
X42520Y126772D02*
X46457D01*
X15502D02*
X16978D01*
X14961Y116929D02*
X15502D01*
X16978D02*
X18898D01*
X42126Y112992D02*
Y120866D01*
X19291D02*
X42126D01*
X19291Y112992D02*
Y120866D01*
Y112992D02*
X42126D01*
X42520Y116929D02*
X46457D01*
X15502D02*
X16978D01*
X14961Y107087D02*
X15502D01*
X16978D02*
X18898D01*
X42126Y103150D02*
Y111024D01*
X19291D02*
X42126D01*
X19291Y103150D02*
Y111024D01*
Y103150D02*
X42126D01*
X42520Y107087D02*
X46457D01*
X15502D02*
X16978D01*
X81496Y56043D02*
Y63976D01*
Y43110D02*
Y51043D01*
X38189Y43110D02*
Y63976D01*
X81496D01*
X38189Y43110D02*
X81496D01*
X71653Y112992D02*
X72195D01*
X73671D02*
X75590D01*
X98819Y109055D02*
Y116929D01*
X75984D02*
X98819D01*
X75984Y109055D02*
Y116929D01*
Y109055D02*
X98819D01*
X99213Y112992D02*
X103150D01*
X72195D02*
X73671D01*
X102608Y122835D02*
X103150D01*
X99213D02*
X101132D01*
X75984Y118898D02*
Y126772D01*
Y118898D02*
X98819D01*
Y126772D01*
X75984D02*
X98819D01*
X71653Y122835D02*
X75590D01*
X101132D02*
X102608D01*
X45915Y23228D02*
X46457D01*
X42520D02*
X44439D01*
X19291Y19291D02*
Y27165D01*
Y19291D02*
X42126D01*
Y27165D01*
X19291D02*
X42126D01*
X14961Y23228D02*
X18898D01*
X44439D02*
X45915D01*
X88386Y98032D02*
X92323D01*
X82480D02*
X86417D01*
X88386Y91142D02*
Y104921D01*
X86417Y91142D02*
Y104921D01*
X14961Y97244D02*
X15502D01*
X16978D02*
X18898D01*
X42126Y93307D02*
Y101181D01*
X19291D02*
X42126D01*
X19291Y93307D02*
Y101181D01*
Y93307D02*
X42126D01*
X42520Y97244D02*
X46457D01*
X15502D02*
X16978D01*
X14764Y428543D02*
Y449409D01*
X3740Y428543D02*
Y449409D01*
Y428543D02*
X14764D01*
X103150D02*
Y449409D01*
X114173Y428543D02*
Y449409D01*
X103150D02*
X114173D01*
X47899Y252492D02*
X47243Y253148D01*
X45932D01*
X45276Y252492D01*
Y249869D01*
X45932Y249213D01*
X47243D01*
X47899Y249869D01*
X49211Y249213D02*
X50523D01*
X49867D01*
Y253148D01*
X49211Y252492D01*
X90419Y86351D02*
X89763Y87007D01*
X88451D01*
X87795Y86351D01*
Y83727D01*
X88451Y83071D01*
X89763D01*
X90419Y83727D01*
X94355Y83071D02*
X91731D01*
X94355Y85695D01*
Y86351D01*
X93699Y87007D01*
X92387D01*
X91731Y86351D01*
X69159Y428477D02*
X68503Y429133D01*
X67191D01*
X66535Y428477D01*
Y425853D01*
X67191Y425197D01*
X68503D01*
X69159Y425853D01*
X70471Y428477D02*
X71127Y429133D01*
X72439D01*
X73095Y428477D01*
Y427821D01*
X72439Y427165D01*
X71783D01*
X72439D01*
X73095Y426509D01*
Y425853D01*
X72439Y425197D01*
X71127D01*
X70471Y425853D01*
X47899Y427689D02*
X47243Y428345D01*
X45932D01*
X45276Y427689D01*
Y425065D01*
X45932Y424409D01*
X47243D01*
X47899Y425065D01*
X51179Y424409D02*
Y428345D01*
X49211Y426377D01*
X51835D01*
X67978Y412335D02*
X67322Y412991D01*
X66010D01*
X65354Y412335D01*
Y409711D01*
X66010Y409055D01*
X67322D01*
X67978Y409711D01*
X71914Y412991D02*
X69290D01*
Y411023D01*
X70602Y411679D01*
X71258D01*
X71914Y411023D01*
Y409711D01*
X71258Y409055D01*
X69946D01*
X69290Y409711D01*
X79396Y360760D02*
X78740Y361416D01*
X77428D01*
X76772Y360760D01*
Y358136D01*
X77428Y357480D01*
X78740D01*
X79396Y358136D01*
X83331Y361416D02*
X82019Y360760D01*
X80707Y359448D01*
Y358136D01*
X81363Y357480D01*
X82675D01*
X83331Y358136D01*
Y358792D01*
X82675Y359448D01*
X80707D01*
X71128Y264697D02*
X70472Y265353D01*
X69160D01*
X68504Y264697D01*
Y262073D01*
X69160Y261417D01*
X70472D01*
X71128Y262073D01*
X72440Y265353D02*
X75064D01*
Y264697D01*
X72440Y262073D01*
Y261417D01*
X77427Y195800D02*
X76771Y196455D01*
X75459D01*
X74803Y195800D01*
Y193176D01*
X75459Y192520D01*
X76771D01*
X77427Y193176D01*
X78739Y195800D02*
X79395Y196455D01*
X80707D01*
X81363Y195800D01*
Y195143D01*
X80707Y194488D01*
X81363Y193832D01*
Y193176D01*
X80707Y192520D01*
X79395D01*
X78739Y193176D01*
Y193832D01*
X79395Y194488D01*
X78739Y195143D01*
Y195800D01*
X79395Y194488D02*
X80707D01*
X93962Y28477D02*
X93306Y29133D01*
X91995D01*
X91339Y28477D01*
Y25853D01*
X91995Y25197D01*
X93306D01*
X93962Y25853D01*
X95274D02*
X95930Y25197D01*
X97242D01*
X97898Y25853D01*
Y28477D01*
X97242Y29133D01*
X95930D01*
X95274Y28477D01*
Y27821D01*
X95930Y27165D01*
X97898D01*
X60104Y89894D02*
X59448Y90550D01*
X58136D01*
X57480Y89894D01*
Y87270D01*
X58136Y86614D01*
X59448D01*
X60104Y87270D01*
X61416Y86614D02*
X62728D01*
X62072D01*
Y90550D01*
X61416Y89894D01*
X64696D02*
X65352Y90550D01*
X66664D01*
X67320Y89894D01*
Y87270D01*
X66664Y86614D01*
X65352D01*
X64696Y87270D01*
Y89894D01*
X106300Y437402D02*
X110236D01*
Y439369D01*
X109580Y440025D01*
X106956D01*
X106300Y439369D01*
Y437402D01*
X110236Y441337D02*
Y442649D01*
Y441993D01*
X106300D01*
X106956Y441337D01*
X6891Y435039D02*
X10827D01*
Y437007D01*
X10171Y437663D01*
X7547D01*
X6891Y437007D01*
Y435039D01*
X10827Y441599D02*
Y438975D01*
X8203Y441599D01*
X7547D01*
X6891Y440943D01*
Y439631D01*
X7547Y438975D01*
X22756Y462205D02*
Y464828D01*
X24068Y466141D01*
X25380Y464828D01*
Y462205D01*
Y464173D01*
X22756D01*
X26692Y466141D02*
Y462205D01*
X29316D01*
X30627Y466141D02*
X31939D01*
X31283D01*
Y462205D01*
X30627D01*
X31939D01*
X33907D02*
Y466141D01*
X35219Y464828D01*
X36531Y466141D01*
Y462205D01*
X41779Y464173D02*
X44403D01*
X43091Y465485D02*
Y462861D01*
X45714Y464173D02*
X48338D01*
X49650Y462205D02*
X50962D01*
X50306D01*
Y466141D01*
X49650Y465485D01*
X55554Y462205D02*
X52930D01*
X55554Y464828D01*
Y465485D01*
X54898Y466141D01*
X53586D01*
X52930Y465485D01*
X56866Y466141D02*
Y463517D01*
X58178Y462205D01*
X59490Y463517D01*
Y466141D01*
X27953Y346850D02*
Y350786D01*
X29921D01*
X30577Y350130D01*
Y348818D01*
X29921Y348162D01*
X27953D01*
X29265D02*
X30577Y346850D01*
X31888D02*
X33200D01*
X32544D01*
Y350786D01*
X31888Y350130D01*
X84646Y331890D02*
Y335825D01*
X86614D01*
X87270Y335170D01*
Y333858D01*
X86614Y333202D01*
X84646D01*
X85958D02*
X87270Y331890D01*
X91205D02*
X88581D01*
X91205Y334514D01*
Y335170D01*
X90549Y335825D01*
X89237D01*
X88581Y335170D01*
X27953Y337008D02*
Y340944D01*
X29921D01*
X30577Y340288D01*
Y338976D01*
X29921Y338320D01*
X27953D01*
X29265D02*
X30577Y337008D01*
X31888Y340288D02*
X32544Y340944D01*
X33856D01*
X34512Y340288D01*
Y339632D01*
X33856Y338976D01*
X33200D01*
X33856D01*
X34512Y338320D01*
Y337664D01*
X33856Y337008D01*
X32544D01*
X31888Y337664D01*
X27953Y327165D02*
Y331101D01*
X29921D01*
X30577Y330445D01*
Y329133D01*
X29921Y328477D01*
X27953D01*
X29265D02*
X30577Y327165D01*
X33856D02*
Y331101D01*
X31888Y329133D01*
X34512D01*
X84646Y341732D02*
Y345668D01*
X86614D01*
X87270Y345012D01*
Y343700D01*
X86614Y343044D01*
X84646D01*
X85958D02*
X87270Y341732D01*
X91205Y345668D02*
X88581D01*
Y343700D01*
X89893Y344356D01*
X90549D01*
X91205Y343700D01*
Y342388D01*
X90549Y341732D01*
X89237D01*
X88581Y342388D01*
X26772Y275590D02*
Y279526D01*
X28740D01*
X29395Y278870D01*
Y277558D01*
X28740Y276903D01*
X26772D01*
X28084D02*
X29395Y275590D01*
X33331Y279526D02*
X32019Y278870D01*
X30707Y277558D01*
Y276247D01*
X31363Y275590D01*
X32675D01*
X33331Y276247D01*
Y276903D01*
X32675Y277558D01*
X30707D01*
X26772Y285433D02*
Y289369D01*
X28740D01*
X29395Y288713D01*
Y287401D01*
X28740Y286745D01*
X26772D01*
X28084D02*
X29395Y285433D01*
X30707Y289369D02*
X33331D01*
Y288713D01*
X30707Y286089D01*
Y285433D01*
X83465Y280512D02*
Y284448D01*
X85432D01*
X86088Y283792D01*
Y282480D01*
X85432Y281824D01*
X83465D01*
X84777D02*
X86088Y280512D01*
X87400Y283792D02*
X88056Y284448D01*
X89368D01*
X90024Y283792D01*
Y283136D01*
X89368Y282480D01*
X90024Y281824D01*
Y281168D01*
X89368Y280512D01*
X88056D01*
X87400Y281168D01*
Y281824D01*
X88056Y282480D01*
X87400Y283136D01*
Y283792D01*
X88056Y282480D02*
X89368D01*
X83661Y270669D02*
Y274605D01*
X85629D01*
X86285Y273949D01*
Y272637D01*
X85629Y271981D01*
X83661D01*
X84973D02*
X86285Y270669D01*
X87597Y271325D02*
X88253Y270669D01*
X89565D01*
X90221Y271325D01*
Y273949D01*
X89565Y274605D01*
X88253D01*
X87597Y273949D01*
Y273293D01*
X88253Y272637D01*
X90221D01*
X26772Y265748D02*
Y269684D01*
X28740D01*
X29395Y269028D01*
Y267716D01*
X28740Y267060D01*
X26772D01*
X28084D02*
X29395Y265748D01*
X30707D02*
X32019D01*
X31363D01*
Y269684D01*
X30707Y269028D01*
X33987D02*
X34643Y269684D01*
X35955D01*
X36611Y269028D01*
Y266404D01*
X35955Y265748D01*
X34643D01*
X33987Y266404D01*
Y269028D01*
X26378Y182283D02*
Y186219D01*
X28346D01*
X29002Y185563D01*
Y184251D01*
X28346Y183595D01*
X26378D01*
X27690D02*
X29002Y182283D01*
X30314D02*
X31626D01*
X30970D01*
Y186219D01*
X30314Y185563D01*
X33593Y182283D02*
X34905D01*
X34249D01*
Y186219D01*
X33593Y185563D01*
X82284Y177165D02*
Y181101D01*
X84251D01*
X84907Y180445D01*
Y179133D01*
X84251Y178477D01*
X82284D01*
X83595D02*
X84907Y177165D01*
X86219D02*
X87531D01*
X86875D01*
Y181101D01*
X86219Y180445D01*
X92123Y177165D02*
X89499D01*
X92123Y179789D01*
Y180445D01*
X91467Y181101D01*
X90155D01*
X89499Y180445D01*
X26378Y172441D02*
Y176377D01*
X28346D01*
X29002Y175721D01*
Y174409D01*
X28346Y173753D01*
X26378D01*
X27690D02*
X29002Y172441D01*
X30314D02*
X31626D01*
X30970D01*
Y176377D01*
X30314Y175721D01*
X33593D02*
X34249Y176377D01*
X35561D01*
X36217Y175721D01*
Y175065D01*
X35561Y174409D01*
X34905D01*
X35561D01*
X36217Y173753D01*
Y173097D01*
X35561Y172441D01*
X34249D01*
X33593Y173097D01*
X25984Y124803D02*
Y128739D01*
X27952D01*
X28608Y128083D01*
Y126771D01*
X27952Y126115D01*
X25984D01*
X27296D02*
X28608Y124803D01*
X29920D02*
X31232D01*
X30576D01*
Y128739D01*
X29920Y128083D01*
X35168Y124803D02*
Y128739D01*
X33200Y126771D01*
X35824D01*
X25984Y114961D02*
Y118896D01*
X27952D01*
X28608Y118240D01*
Y116929D01*
X27952Y116272D01*
X25984D01*
X27296D02*
X28608Y114961D01*
X29920D02*
X31232D01*
X30576D01*
Y118896D01*
X29920Y118240D01*
X35824Y118896D02*
X33200D01*
Y116929D01*
X34512Y117584D01*
X35168D01*
X35824Y116929D01*
Y115617D01*
X35168Y114961D01*
X33856D01*
X33200Y115617D01*
X25984Y105118D02*
Y109054D01*
X27952D01*
X28608Y108398D01*
Y107086D01*
X27952Y106430D01*
X25984D01*
X27296D02*
X28608Y105118D01*
X29920D02*
X31232D01*
X30576D01*
Y109054D01*
X29920Y108398D01*
X35824Y109054D02*
X34512Y108398D01*
X33200Y107086D01*
Y105774D01*
X33856Y105118D01*
X35168D01*
X35824Y105774D01*
Y106430D01*
X35168Y107086D01*
X33200D01*
X82677Y111024D02*
Y114959D01*
X84645D01*
X85301Y114303D01*
Y112991D01*
X84645Y112336D01*
X82677D01*
X83989D02*
X85301Y111024D01*
X86613D02*
X87925D01*
X87269D01*
Y114959D01*
X86613Y114303D01*
X89893Y114959D02*
X92516D01*
Y114303D01*
X89893Y111680D01*
Y111024D01*
X82677Y120866D02*
Y124802D01*
X84645D01*
X85301Y124146D01*
Y122834D01*
X84645Y122178D01*
X82677D01*
X83989D02*
X85301Y120866D01*
X86613D02*
X87925D01*
X87269D01*
Y124802D01*
X86613Y124146D01*
X89893D02*
X90549Y124802D01*
X91861D01*
X92516Y124146D01*
Y123490D01*
X91861Y122834D01*
X92516Y122178D01*
Y121522D01*
X91861Y120866D01*
X90549D01*
X89893Y121522D01*
Y122178D01*
X90549Y122834D01*
X89893Y123490D01*
Y124146D01*
X90549Y122834D02*
X91861D01*
X25984Y21260D02*
Y25196D01*
X27952D01*
X28608Y24540D01*
Y23228D01*
X27952Y22572D01*
X25984D01*
X27296D02*
X28608Y21260D01*
X29920D02*
X31232D01*
X30576D01*
Y25196D01*
X29920Y24540D01*
X33200Y21916D02*
X33856Y21260D01*
X35168D01*
X35824Y21916D01*
Y24540D01*
X35168Y25196D01*
X33856D01*
X33200Y24540D01*
Y23884D01*
X33856Y23228D01*
X35824D01*
X25984Y95276D02*
Y99211D01*
X27952D01*
X28608Y98555D01*
Y97243D01*
X27952Y96588D01*
X25984D01*
X27296D02*
X28608Y95276D01*
X32544D02*
X29920D01*
X32544Y97899D01*
Y98555D01*
X31888Y99211D01*
X30576D01*
X29920Y98555D01*
X33856D02*
X34512Y99211D01*
X35824D01*
X36480Y98555D01*
Y95932D01*
X35824Y95276D01*
X34512D01*
X33856Y95932D01*
Y98555D01*
X82284Y167323D02*
Y171259D01*
X84251D01*
X84907Y170603D01*
Y169291D01*
X84251Y168635D01*
X82284D01*
X83595D02*
X84907Y167323D01*
X88843D02*
X86219D01*
X88843Y169947D01*
Y170603D01*
X88187Y171259D01*
X86875D01*
X86219Y170603D01*
X90155Y167323D02*
X91467D01*
X90811D01*
Y171259D01*
X90155Y170603D01*
X56693Y55904D02*
X59317D01*
X58005D01*
Y51968D01*
X60629Y55904D02*
Y51968D01*
X63253D01*
X64564Y55248D02*
X65220Y55904D01*
X66532D01*
X67188Y55248D01*
Y52624D01*
X66532Y51968D01*
X65220D01*
X64564Y52624D01*
Y55248D01*
X68500Y55904D02*
X71124D01*
Y55248D01*
X68500Y52624D01*
Y51968D01*
X75060D02*
X72436D01*
X75060Y54592D01*
Y55248D01*
X74404Y55904D01*
X73092D01*
X72436Y55248D01*
X72441Y387007D02*
X75065D01*
X73753D01*
Y383071D01*
X76377Y387007D02*
Y383071D01*
X79001D01*
X80312Y386351D02*
X80968Y387007D01*
X82280D01*
X82936Y386351D01*
Y383727D01*
X82280Y383071D01*
X80968D01*
X80312Y383727D01*
Y386351D01*
X84248Y387007D02*
X86872D01*
Y386351D01*
X84248Y383727D01*
Y383071D01*
X90152D02*
Y387007D01*
X88184Y385039D01*
X90808D01*
X74016Y224408D02*
X76640D01*
X75328D01*
Y220472D01*
X77952Y224408D02*
Y220472D01*
X80575D01*
X81887Y223752D02*
X82543Y224408D01*
X83855D01*
X84511Y223752D01*
Y221128D01*
X83855Y220472D01*
X82543D01*
X81887Y221128D01*
Y223752D01*
X85823Y224408D02*
X88447D01*
Y223752D01*
X85823Y221128D01*
Y220472D01*
X91727D02*
Y224408D01*
X89759Y222440D01*
X92383D01*
D23*
X19055Y432520D02*
Y469685D01*
X18976Y432441D02*
X99055D01*
Y469685D01*
X19055D02*
X99055D01*
D24*
X9252Y448228D02*
D03*
X108661Y429725D02*
D03*
M02*
